<?xml version="1.0" standalone="no"?>
<!DOCTYPE svg PUBLIC "-//W3C//DTD SVG 20010904//EN"
 "http://www.w3.org/TR/2001/REC-SVG-20010904/DTD/svg10.dtd">
<svg version="1.0" xmlns="http://www.w3.org/2000/svg"
 width="512.000000pt" height="512.000000pt" viewBox="0 0 512.000000 512.000000"
 preserveAspectRatio="xMidYMid meet">
<metadata>
Created by potrace 1.16, written by Peter Selinger 2001-2019
</metadata>
<g transform="translate(0.000000,512.000000) scale(0.100000,-0.100000)"
fill="#000000" stroke="none">
<path d="M1219 5093 c-6 -16 -18 -36 -26 -45 -9 -10 -11 -18 -6 -18 18 0 21
-48 4 -66 -9 -9 3 -2 27 16 40 32 42 36 42 87 0 41 -3 53 -15 53 -9 0 -20 -12
-26 -27z"/>
<path d="M1340 5054 c0 -57 4 -71 30 -110 30 -42 67 -63 89 -49 6 3 20 8 32
10 28 6 295 150 339 183 70 53 2 34 -134 -37 -147 -78 -209 -103 -231 -95 -29
11 -95 106 -95 135 0 19 -5 29 -15 29 -12 0 -15 -14 -15 -66z"/>
<path d="M1590 5095 c-31 -33 -8 -33 45 0 l40 25 -31 0 c-20 0 -39 -9 -54 -25z"/>
<path d="M3159 5079 c-6 -24 -12 -57 -13 -74 -1 -26 3 -30 34 -35 51 -9 63
-18 56 -45 -6 -25 7 -41 25 -29 8 4 7 9 -2 15 -11 7 -11 14 -2 40 7 18 11 34
9 36 -2 2 -26 6 -55 10 -55 6 -55 7 -40 72 13 57 4 65 -12 10z"/>
<path d="M3706 5063 c3 -32 13 -70 20 -85 16 -31 74 -78 95 -78 25 0 155 83
180 115 67 83 68 83 -56 -11 -47 -35 -93 -64 -101 -64 -57 0 -104 63 -104 140
0 34 -3 40 -21 40 -19 0 -20 -4 -13 -57z"/>
<path d="M3835 5110 c-3 -6 1 -7 9 -4 18 7 21 14 7 14 -6 0 -13 -4 -16 -10z"/>
<path d="M4167 5113 c-4 -3 -7 -16 -6 -27 0 -19 1 -19 10 3 10 24 8 36 -4 24z"/>
<path d="M5064 5112 c-28 -17 -84 -118 -84 -150 l0 -33 29 20 c18 13 28 28 25
39 -3 11 11 28 41 50 32 23 45 40 45 57 0 19 -5 25 -22 25 -13 0 -28 -4 -34
-8z"/>
<path d="M3031 5050 c-8 -41 -9 -65 -2 -77 6 -10 11 -16 12 -13 2 9 6 150 4
150 -2 0 -8 -27 -14 -60z"/>
<path d="M4490 4975 c-74 -63 -140 -112 -147 -110 -6 2 -19 -6 -30 -17 -10
-12 -12 -18 -4 -13 10 5 12 4 7 -4 -4 -6 -12 -9 -17 -5 -11 6 -299 -221 -299
-236 0 -24 23 -15 91 37 94 71 151 122 164 144 6 10 14 17 19 17 18 -2 326
243 352 281 28 40 -1 20 -136 -94z"/>
<path d="M144 5054 c-9 -37 26 -102 83 -155 45 -41 59 -45 77 -17 8 13 -5 34
-63 102 -41 48 -77 89 -82 92 -5 2 -11 -7 -15 -22z"/>
<path d="M851 5034 c-8 -27 -5 -53 9 -111 11 -41 17 -80 14 -87 -4 -6 11 6 32
26 35 35 38 40 27 65 -6 16 -22 54 -35 85 -13 32 -26 58 -30 58 -4 0 -12 -16
-17 -36z"/>
<path d="M2155 5018 c-121 -22 -351 -106 -453 -164 -23 -14 -47 -22 -52 -19
-5 3 -25 -5 -43 -19 -19 -15 -39 -26 -44 -26 -6 0 -24 15 -40 34 -28 31 -32
32 -54 20 -43 -24 -62 -16 -131 53 l-67 66 -58 -50 c-32 -28 -67 -61 -78 -73
-45 -49 -87 -57 -128 -22 -16 14 -27 6 -140 -112 l-122 -128 -28 22 c-15 12
-29 21 -31 19 -24 -28 -33 -83 -16 -94 20 -12 53 8 144 88 89 80 129 104 211
126 25 6 65 33 108 71 95 84 106 85 175 19 31 -30 58 -57 60 -61 4 -8 46 4 94
28 37 17 38 17 61 -4 20 -19 33 -22 80 -19 33 2 64 10 74 19 48 42 217 112
372 154 69 18 110 35 133 55 18 15 31 28 28 27 -3 0 -27 -4 -55 -10z"/>
<path d="M3188 5023 c7 -3 16 -2 19 1 4 3 -2 6 -13 5 -11 0 -14 -3 -6 -6z"/>
<path d="M4036 4904 c-194 -140 -189 -139 -330 -54 -112 68 -144 73 -196 35
-41 -30 -56 -31 -70 -5 -10 18 -8 38 7 95 5 17 3 16 -15 -5 l-20 -25 -53 17
c-29 10 -56 15 -61 12 -19 -12 -5 -22 38 -27 53 -6 63 -13 70 -52 10 -54 23
-68 57 -61 112 22 116 21 215 -39 51 -31 107 -59 125 -61 33 -5 46 2 235 136
64 45 180 153 161 149 -2 0 -75 -52 -163 -115z"/>
<path d="M3529 4980 c-13 -10 -19 -20 -14 -20 6 0 37 -2 70 -3 53 -2 70 -8
145 -54 47 -29 90 -53 95 -53 14 0 -172 120 -212 136 -43 19 -56 18 -84 -6z"/>
<path d="M4860 4936 c0 -30 13 -40 40 -31 25 8 26 24 3 41 -27 20 -43 17 -43
-10z"/>
<path d="M4966 4824 c-146 -111 -150 -113 -239 -134 -49 -11 -112 -32 -138
-47 -37 -20 -52 -23 -62 -15 -8 7 -17 9 -20 5 -10 -9 -9 -51 1 -57 5 -3 46 8
93 24 46 17 100 30 120 30 40 0 60 13 225 140 53 41 114 88 135 103 22 16 39
36 39 48 0 10 -1 18 -2 18 -2 -1 -70 -52 -152 -115z"/>
<path d="M0 4867 c0 -49 4 -73 16 -84 14 -14 17 -13 40 7 33 32 30 50 -16 101
l-39 44 -1 -68z"/>
<path d="M2145 4859 c-120 -31 -245 -81 -245 -99 0 -9 -6 -22 -12 -29 -9 -9
-4 -8 12 2 14 8 83 34 153 57 115 38 181 71 167 83 -3 2 -36 -4 -75 -14z"/>
<path d="M4613 4810 c-28 -11 -30 -36 -4 -50 26 -14 45 -13 87 5 l35 14 -21
21 c-21 21 -60 25 -97 10z"/>
<path d="M4370 4768 c0 -13 6 -18 17 -16 24 5 27 25 3 31 -15 4 -20 0 -20 -15z"/>
<path d="M77 4703 c-40 -38 -74 -77 -75 -88 -3 -16 3 -13 34 15 75 71 134 140
119 140 -3 0 -38 -30 -78 -67z"/>
<path d="M1725 4692 c-138 -72 -158 -89 -151 -125 11 -56 47 -74 80 -41 23 22
20 34 -8 34 -16 0 -27 7 -31 20 -8 24 10 50 34 50 23 0 182 40 204 52 9 5 17
15 17 22 0 8 -8 16 -17 20 -10 3 -22 8 -28 11 -5 2 -51 -17 -100 -43z"/>
<path d="M2432 4690 c-244 -37 -639 -197 -844 -342 -140 -99 -398 -316 -407
-341 -2 -7 26 17 64 52 37 35 93 79 124 99 31 19 73 50 94 69 21 19 48 33 62
33 14 0 25 4 25 9 0 16 66 81 83 81 9 0 18 4 21 9 6 9 83 27 99 23 4 -1 7 2 7
8 0 6 3 9 8 8 12 -3 52 13 52 21 0 5 52 29 80 36 3 1 37 16 75 34 39 18 94 37
123 41 65 11 72 15 72 46 0 30 -11 26 180 54 85 12 164 24 175 27 46 9 299 2
406 -12 135 -17 322 -67 470 -124 225 -87 522 -284 693 -460 40 -41 53 -48 67
-40 10 5 16 16 13 23 -6 16 -185 177 -271 245 -225 177 -530 321 -803 379
-213 46 -457 54 -668 22z"/>
<path d="M1261 4625 c-46 -35 -91 -71 -100 -80 -15 -16 -14 -17 7 -10 50 15
182 121 182 147 0 11 4 14 -89 -57z"/>
<path d="M1035 4654 c-135 -117 -274 -247 -317 -298 -39 -46 -23 -34 63 49 62
61 155 147 204 192 50 45 88 82 85 82 -3 0 -18 -11 -35 -25z"/>
<path d="M2510 4628 l0 -28 113 0 c332 0 682 -90 962 -248 182 -102 289 -183
483 -366 117 -110 143 -128 156 -107 8 12 -157 179 -272 274 -147 122 -381
271 -490 311 -20 8 -71 28 -112 46 -183 77 -422 123 -655 124 -101 1 -173 5
-177 11 -4 6 -8 -2 -8 -17z"/>
<path d="M3735 4626 c17 -14 37 -26 45 -25 13 0 13 1 0 6 -8 3 -28 15 -45 25
l-30 20 30 -26z"/>
<path d="M4936 4619 c-16 -13 -33 -18 -45 -14 -15 4 -54 -17 -141 -75 -107
-72 -139 -100 -111 -100 5 0 51 25 104 55 97 57 146 72 192 61 23 -6 25 -9 13
-23 -7 -9 8 -1 35 17 52 37 59 61 25 84 -29 21 -40 20 -72 -5z"/>
<path d="M3902 4575 c5 -61 15 -78 29 -52 6 9 17 17 26 17 12 0 10 8 -11 34
-14 19 -26 39 -26 45 0 6 -5 11 -11 11 -8 0 -10 -18 -7 -55z"/>
<path d="M4167 4589 c-15 -56 -8 -70 71 -143 236 -217 327 -316 484 -528 61
-83 184 -298 200 -349 10 -34 15 -39 32 -35 12 3 24 6 29 6 18 0 2 44 -53 144
-174 312 -368 553 -634 784 -54 48 -104 100 -111 115 -12 29 -12 29 -18 6z"/>
<path d="M5028 4505 c-49 -36 -88 -69 -88 -75 0 -22 36 -8 106 43 54 38 74 58
74 75 0 12 -1 22 -2 22 -2 0 -42 -29 -90 -65z"/>
<path d="M2186 4536 c4 -10 -23 -23 -93 -47 -462 -153 -863 -458 -1130 -859
-27 -41 -56 -86 -62 -99 -24 -45 6 -11 51 56 85 129 93 141 154 219 76 97 178
193 322 302 183 139 389 248 677 357 92 36 126 65 91 78 -10 4 -13 1 -10 -7z"/>
<path d="M1468 4510 c-2 -3 -55 -45 -118 -92 -63 -48 -135 -106 -160 -128
l-45 -40 48 26 c27 15 51 33 54 40 3 8 11 14 18 14 10 0 25 10 73 50 6 6 12 9
12 7 0 -3 16 10 36 28 20 18 56 40 80 50 46 18 62 51 24 51 -11 0 -21 -3 -22
-6z"/>
<path d="M3980 4499 c0 -7 -10 -9 -25 -7 -39 8 -30 -11 28 -61 105 -91 374
-367 388 -398 17 -39 19 -40 47 -10 l22 23 -89 100 c-48 54 -136 141 -195 193
-59 52 -119 111 -133 132 -25 38 -43 50 -43 28z"/>
<path d="M152 4478 c-10 -13 -28 -67 -20 -58 9 8 39 70 34 70 -2 0 -8 -6 -14
-12z"/>
<path d="M220 4404 c-16 -37 -30 -71 -30 -76 0 -4 25 -24 55 -43 37 -24 55
-42 55 -56 0 -11 5 -17 10 -14 6 3 10 1 10 -4 0 -16 46 -13 79 3 27 14 51 43
79 96 12 22 9 21 -20 -7 -19 -18 -42 -33 -51 -33 -10 0 -48 16 -86 35 -37 19
-75 35 -84 35 -21 0 -22 20 -3 46 14 19 16 18 86 -6 l72 -25 18 23 c11 13 17
29 14 36 -8 20 -50 36 -62 24 -6 -6 -23 -3 -50 11 -23 12 -46 21 -52 21 -5 0
-23 -30 -40 -66z"/>
<path d="M4555 4394 c-5 -30 -2 -41 16 -60 26 -28 44 -30 57 -7 7 12 3 22 -19
41 -16 13 -29 30 -29 37 0 31 -18 22 -25 -11z"/>
<path d="M86 4331 c-20 -44 -36 -84 -36 -88 0 -9 190 -117 195 -111 1 1 5 12
9 23 5 16 -5 27 -54 58 -33 20 -68 37 -79 37 -36 0 -41 51 -10 111 11 23 18
43 16 45 -2 2 -20 -32 -41 -75z"/>
<path d="M4869 4403 c-1 -5 0 -18 1 -31 1 -18 -7 -26 -39 -40 -45 -19 -50 -31
-23 -55 23 -21 61 -22 68 -2 4 8 14 15 24 15 19 0 30 19 30 49 0 32 -57 91
-61 64z"/>
<path d="M954 4368 l-19 -23 23 19 c21 18 27 26 19 26 -2 0 -12 -10 -23 -22z"/>
<path d="M2706 4375 c-42 -103 -27 -120 123 -135 62 -6 145 -17 183 -25 101
-22 125 -20 165 15 18 17 30 30 25 30 -4 0 -13 -5 -18 -10 -7 -7 -48 -1 -129
20 -66 17 -164 36 -219 42 -56 6 -103 13 -105 14 -2 2 -6 18 -10 36 -6 29 -8
30 -15 13z"/>
<path d="M4723 4319 c-38 -79 -7 -149 74 -165 46 -9 81 2 115 37 36 35 32 45
-8 24 -73 -38 -148 1 -162 84 -7 42 -8 43 -19 20z"/>
<path d="M3250 4243 c0 -5 21 -17 47 -28 26 -11 51 -21 55 -23 4 -2 8 1 8 6 0
5 -8 12 -17 15 -10 3 -35 12 -55 21 -21 9 -38 13 -38 9z"/>
<path d="M1136 4221 c-4 -5 3 -7 14 -4 23 6 26 13 6 13 -8 0 -17 -4 -20 -9z"/>
<path d="M3370 4191 c0 -5 7 -11 15 -15 8 -3 15 -1 15 3 0 5 -7 11 -15 15 -8
3 -15 1 -15 -3z"/>
<path d="M1032 4137 c-29 -29 -49 -57 -45 -62 5 -4 3 -5 -4 -1 -11 6 -178
-184 -174 -198 1 -4 -8 -16 -21 -26 -13 -11 -19 -19 -14 -20 4 0 -1 -8 -12
-17 -27 -24 -144 -215 -136 -222 4 -3 9 0 11 7 3 7 15 25 27 40 13 15 47 65
76 112 30 47 69 102 87 123 18 20 33 41 33 45 0 5 36 45 81 90 45 45 89 96 98
114 9 18 24 33 33 33 10 0 25 8 35 18 16 16 16 17 -3 17 -11 0 -43 -24 -72
-53z"/>
<path d="M5060 4154 c-62 -49 -63 -49 -47 -62 22 -18 107 40 107 73 0 32 -6
31 -60 -11z"/>
<path d="M2503 4170 c-434 -46 -812 -264 -1081 -625 -73 -97 -162 -245 -148
-245 3 0 40 46 83 103 89 117 231 268 318 337 220 173 508 300 772 340 92 14
124 29 153 70 l21 30 -23 -1 c-13 -1 -55 -5 -95 -9z"/>
<path d="M3411 4173 c-1 -6 32 -29 72 -51 39 -22 109 -68 155 -102 46 -34 86
-60 88 -57 8 7 -104 89 -191 139 -38 23 -72 45 -73 50 -2 4 -8 6 -13 2 -5 -3
-9 0 -9 6 0 6 -4 9 -9 6 -5 -4 -12 0 -14 6 -4 9 -6 9 -6 1z"/>
<path d="M598 4163 c-10 -2 -18 -9 -18 -14 0 -14 16 -11 30 6 7 8 11 14 9 14
-2 -1 -12 -3 -21 -6z"/>
<path d="M0 4096 l0 -54 90 -61 c49 -34 106 -69 125 -77 22 -9 33 -19 30 -27
-4 -7 7 3 24 21 31 32 41 62 20 62 -25 0 -67 40 -62 59 4 16 -14 29 -106 75
-61 31 -113 56 -116 56 -3 0 -5 -24 -5 -54z"/>
<path d="M324 4108 l-19 -23 23 19 c21 18 27 26 19 26 -2 0 -12 -10 -23 -22z"/>
<path d="M4911 4094 c-18 -41 -13 -58 41 -140 28 -44 77 -133 109 -199 l58
-120 0 60 c1 50 -7 76 -42 155 -24 52 -68 134 -99 182 -54 85 -55 87 -67 62z"/>
<path d="M2773 4078 c-14 -14 -23 -37 -23 -55 0 -34 -12 -30 175 -68 67 -14
260 -78 274 -91 18 -16 -21 -8 -114 25 -121 43 -230 66 -348 76 -76 6 -77 6
-87 -20 -24 -62 -4 -91 68 -100 211 -26 306 -52 447 -122 141 -71 245 -144
357 -253 99 -96 125 -111 156 -91 25 15 -215 234 -358 326 -176 114 -372 181
-587 200 -69 7 -73 8 -73 32 0 24 0 24 73 18 154 -14 332 -62 448 -121 26 -13
49 -20 53 -17 3 4 6 1 6 -6 0 -7 5 -9 10 -6 6 3 10 2 10 -3 0 -6 21 -22 48
-37 77 -45 186 -130 259 -202 148 -148 205 -214 199 -229 -5 -13 2 -12 30 5
20 12 38 21 39 19 7 -9 55 -104 55 -110 0 -8 -113 -78 -126 -78 -5 0 -23 23
-40 52 -30 50 -32 51 -44 29 -26 -49 -18 -163 11 -146 14 10 66 -32 99 -79 16
-24 41 -74 54 -111 32 -83 69 -274 64 -326 -3 -32 0 -39 14 -39 23 0 24 47 3
185 -20 129 -47 229 -92 334 -28 66 -33 85 -22 91 7 5 17 6 22 3 10 -6 57
-108 56 -120 0 -3 6 -10 15 -15 10 -5 16 -20 15 -36 -3 -38 32 -175 47 -187
17 -13 23 -73 12 -105 -11 -28 0 -150 13 -150 5 0 9 16 9 35 0 28 5 38 23 44
37 14 47 3 47 -55 l0 -54 -44 0 c-100 0 -162 -12 -176 -33 -9 -16 -10 -22 -1
-25 24 -8 41 -62 41 -130 0 -47 -11 -106 -35 -192 -19 -68 -33 -125 -31 -127
6 -6 55 139 76 226 12 46 24 122 27 167 4 59 10 84 19 84 20 0 26 -35 20 -113
-3 -44 -2 -60 3 -42 l8 30 16 -36 c25 -57 10 -176 -43 -340 -37 -113 -56 -159
-70 -169 -4 -3 -26 -43 -49 -90 -56 -115 -24 -72 49 65 164 308 231 573 216
859 -23 468 -272 913 -656 1170 -166 112 -374 194 -547 218 -85 11 -92 14 -95
36 l-3 24 -22 -24z"/>
<path d="M328 4006 c-20 -15 -23 -26 -8 -26 5 0 14 9 20 20 12 23 11 24 -12 6z"/>
<path d="M4435 3964 c-52 -43 -60 -45 -89 -23 l-26 20 0 -23 c0 -13 6 -32 13
-42 10 -14 17 -15 40 -7 16 6 37 11 47 11 22 0 77 -45 120 -99 29 -38 52 -109
30 -96 -7 4 -6 -2 2 -14 15 -24 24 -27 30 -9 3 7 28 -12 59 -43 142 -142 262
-513 295 -909 9 -107 22 -148 23 -69 2 158 -72 560 -133 722 -43 114 -136 282
-226 411 -91 129 -142 196 -148 196 -4 -1 -20 -12 -37 -26z"/>
<path d="M1107 3936 c-10 -8 -14 -16 -10 -19 11 -7 27 4 31 21 3 15 1 15 -21
-2z"/>
<path d="M3810 3852 c41 -39 81 -71 88 -72 7 0 -17 28 -54 63 -37 34 -70 62
-73 62 -3 0 -13 4 -21 10 -8 5 19 -23 60 -63z"/>
<path d="M2384 3886 c-126 -33 -253 -89 -359 -160 -169 -113 -398 -366 -474
-526 -12 -25 -16 -37 -9 -26 7 10 28 42 47 70 46 69 76 103 195 224 176 180
343 272 646 356 50 14 84 38 104 74 11 19 -46 14 -150 -12z"/>
<path d="M2004 3874 c-72 -37 -174 -105 -174 -115 0 -15 23 -59 31 -59 4 0 10
4 13 9 3 5 50 35 103 67 54 32 100 59 101 60 7 5 -10 64 -17 64 -5 0 -30 -12
-57 -26z"/>
<path d="M4250 3845 c-27 -32 32 -91 68 -69 22 14 28 54 9 54 -8 0 -20 7 -27
15 -16 19 -34 19 -50 0z"/>
<path d="M0 3740 c0 -47 2 -52 35 -71 19 -12 32 -25 29 -30 -3 -5 -2 -8 3 -7
4 1 26 -8 49 -19 l41 -22 39 20 c23 12 55 42 80 77 60 84 62 92 13 45 -27 -27
-53 -43 -68 -43 -13 0 -66 23 -118 50 -51 28 -96 50 -98 50 -3 0 -5 -23 -5
-50z"/>
<path d="M4390 3765 c-23 -27 -4 -93 73 -253 171 -359 230 -563 239 -829 2
-60 5 -70 16 -60 12 9 13 35 7 137 -15 272 -72 479 -215 776 -42 89 -80 178
-84 197 -8 43 -19 52 -36 32z"/>
<path d="M4003 3676 c3 -19 43 -92 92 -165 84 -127 168 -286 215 -404 27 -70
58 -90 76 -50 6 14 17 29 25 34 9 6 3 7 -17 3 -31 -6 -32 -6 -54 62 -26 79
-91 213 -151 311 -55 90 -170 243 -182 243 -5 0 -7 -15 -4 -34z"/>
<path d="M2837 3671 c3 -14 20 -23 56 -32 167 -39 358 -149 488 -281 43 -43
82 -78 86 -78 5 0 27 -18 48 -40 37 -38 65 -51 65 -31 0 20 -239 249 -312 299
-100 68 -212 124 -316 156 -102 32 -122 33 -115 7z"/>
<path d="M1727 3577 c-90 -95 -207 -243 -207 -261 1 -12 2 -11 89 109 32 44
94 115 136 158 43 42 76 79 74 81 -2 3 -44 -37 -92 -87z"/>
<path d="M2581 3641 c-18 -11 -6 -81 14 -81 17 0 85 63 85 79 0 13 -78 15 -99
2z"/>
<path d="M2806 3629 c-4 -15 -6 -39 -4 -55 3 -25 11 -31 68 -52 178 -66 212
-82 308 -145 56 -38 112 -82 124 -98 l22 -29 23 22 23 22 -32 34 c-119 125
-397 272 -484 256 -32 -6 -33 -5 -36 33 -4 36 -4 36 -12 12z"/>
<path d="M2415 3611 c-84 -25 -156 -56 -247 -104 l-79 -42 -29 33 c-35 38 -45
40 -60 11 -17 -30 -5 -62 30 -83 36 -21 40 -20 175 28 115 41 188 47 204 17 6
-10 12 -48 13 -85 3 -61 5 -66 26 -66 26 0 26 -6 6 131 -9 61 -15 112 -13 114
2 2 17 5 34 7 33 3 42 -15 44 -90 1 -30 5 -42 14 -39 12 4 12 29 1 135 -5 49
-7 52 -32 51 -15 0 -54 -8 -87 -18z"/>
<path d="M0 3531 c0 -34 5 -42 35 -60 27 -15 35 -27 35 -48 0 -26 2 -25 19 13
38 83 38 81 -25 109 -31 14 -58 25 -60 25 -2 0 -4 -18 -4 -39z"/>
<path d="M752 3495 c-17 -37 -14 -45 4 -12 9 16 14 31 11 33 -2 2 -9 -7 -15
-21z"/>
<path d="M487 3483 c-7 -36 -2 -41 13 -13 8 14 8 26 2 32 -6 6 -11 -1 -15 -19z"/>
<path d="M1935 3474 l-30 -26 33 22 c17 12 32 23 32 26 0 7 -4 5 -35 -22z"/>
<path d="M4961 3469 c-30 -10 -56 -21 -59 -23 -2 -3 1 -20 8 -40 7 -22 16 -33
25 -30 11 5 87 -87 97 -118 2 -6 13 -8 27 -3 26 8 25 17 -17 150 l-27 82 -54
-18z"/>
<path d="M291 3454 c-9 -21 -14 -23 -31 -14 -17 9 -20 6 -29 -27 -16 -62 -32
-146 -28 -149 2 -2 13 27 25 65 20 61 54 112 67 100 2 -3 -4 -27 -14 -55 -10
-27 -16 -55 -14 -61 3 -7 0 -13 -6 -13 -6 0 -11 -5 -11 -11 0 -5 5 -7 10 -4 6
3 10 1 10 -4 0 -6 -7 -11 -15 -11 -21 0 -19 -20 3 -21 9 0 12 -3 6 -5 -7 -3
-10 -14 -7 -24 3 -13 0 -20 -8 -20 -11 0 -11 -2 -2 -8 10 -6 9 -13 -1 -33 -17
-33 -26 -65 -32 -114 -2 -22 -9 -62 -14 -90 -12 -57 -17 -86 -26 -133 -4 -19
-9 -29 -13 -24 -3 6 -6 -39 -6 -99 l0 -109 38 0 37 0 0 83 c0 176 39 386 111
602 30 89 46 151 40 153 -6 2 -26 14 -45 27 l-34 23 -11 -24z"/>
<path d="M2792 3458 c3 -7 27 -18 54 -25 84 -21 225 -98 324 -177 52 -42 98
-76 103 -76 20 0 2 29 -41 66 -113 98 -231 165 -356 203 -79 24 -89 25 -84 9z"/>
<path d="M683 3357 c-72 -135 -152 -384 -187 -585 l-10 -63 -80 7 -79 7 6
-194 c5 -190 27 -370 48 -395 6 -7 8 -18 4 -24 -3 -5 -2 -10 4 -10 6 0 15 -19
22 -42 16 -62 67 -158 87 -165 9 -4 20 -11 24 -16 10 -16 -3 -38 -21 -35 -20
3 -41 -9 -41 -25 0 -7 4 -6 10 3 5 8 10 10 10 4 0 -7 10 -14 23 -18 16 -4 30
-26 56 -88 19 -46 39 -92 45 -104 6 -12 30 -57 53 -100 22 -43 65 -115 95
-159 51 -76 65 -94 149 -189 19 -23 52 -63 73 -91 59 -80 267 -285 304 -301
19 -8 64 -45 101 -82 149 -153 436 -304 604 -318 39 -3 89 -10 111 -16 37 -9
38 -11 33 -44 -5 -28 -2 -37 16 -48 28 -18 260 -40 320 -31 38 6 55 3 88 -15
66 -34 140 -44 185 -25 21 9 90 22 154 30 219 29 376 70 525 138 144 66 147
66 194 24 22 -20 37 -38 34 -41 -3 -3 16 7 43 21 47 25 49 28 52 72 2 36 0 43
-10 33 -6 -6 -24 -12 -40 -12 -20 0 -31 8 -43 30 -9 17 -18 30 -21 30 -2 0
-26 -11 -52 -24 -176 -88 -474 -177 -661 -197 -174 -18 -171 -17 -171 -44 0
-15 -6 -25 -14 -25 -16 0 -28 24 -21 43 4 9 -11 11 -60 9 -45 -3 -65 0 -65 8
0 7 9 14 20 17 13 3 19 13 17 27 -2 20 3 21 76 23 73 2 78 1 87 -21 7 -19 14
-22 35 -18 20 3 23 7 13 13 -8 6 -9 9 -1 9 6 0 67 9 135 20 172 29 379 92 516
157 39 19 79 32 88 29 9 -3 12 -2 9 5 -4 6 -1 10 6 8 27 -3 40 1 34 11 -3 6 1
13 9 16 9 3 14 9 12 13 -3 4 4 7 13 7 17 0 17 -2 0 -33 l-19 -34 30 23 c17 12
30 30 30 40 0 11 16 26 43 39 129 66 346 239 502 400 55 57 138 140 185 184
115 108 164 171 223 293 57 116 59 146 3 44 -20 -37 -63 -105 -94 -152 -53
-79 -59 -85 -91 -85 -29 0 -40 -7 -67 -42 -29 -38 -34 -40 -50 -28 -23 16 -44
3 -37 -23 6 -23 -227 -251 -349 -343 -294 -219 -670 -379 -1063 -451 -172 -32
-473 -36 -635 -9 -69 11 -146 27 -172 35 -43 12 -48 12 -48 -1 0 -19 -25 -13
-145 34 -172 68 -485 244 -485 272 0 6 11 13 25 17 18 5 35 -1 60 -21 47 -35
355 -188 452 -224 104 -38 226 -68 353 -86 120 -17 410 -20 515 -5 111 16 246
42 242 46 -2 3 -44 -3 -93 -11 -129 -23 -390 -31 -521 -15 -180 21 -437 91
-590 160 -36 17 -75 30 -85 30 -11 0 -61 21 -111 47 -51 26 -97 48 -103 49 -6
1 -52 29 -102 62 -293 198 -539 474 -699 787 -50 99 -91 204 -139 360 -14 45
-22 63 -19 40 19 -125 151 -446 234 -570 27 -40 30 -55 10 -55 -10 0 -101 160
-148 262 -94 202 -153 439 -176 711 l-7 77 -53 0 c-51 0 -53 1 -59 31 -3 17
-6 62 -6 100 0 83 12 99 68 92 66 -9 79 5 86 94 16 184 67 401 121 518 30 64
65 158 61 162 -1 2 -21 -30 -43 -70z m-238 -1034 c3 -38 15 -132 27 -211 11
-79 18 -145 15 -148 -11 -12 -57 232 -70 379 -3 34 -1 47 8 47 9 0 15 -22 20
-67z m715 -1358 c69 -69 121 -125 117 -125 -13 0 -173 149 -218 203 -72 85
-26 50 101 -78z m1106 -620 c10 -14 134 -35 205 -35 21 0 39 -4 39 -10 0 -5
-17 -10 -38 -10 -47 0 -282 29 -293 36 -5 3 -9 14 -9 26 0 19 4 20 43 14 23
-4 47 -13 53 -21z"/>
<path d="M481 3324 c-38 -105 -93 -286 -88 -291 2 -2 15 25 28 59 18 45 31 64
50 71 14 6 35 26 46 46 l21 37 -26 2 c-14 1 -28 4 -30 7 -3 3 7 35 21 72 15
38 23 71 18 76 -5 5 -22 -29 -40 -79z"/>
<path d="M2857 3317 c-12 -31 5 -49 72 -80 36 -16 92 -47 123 -70 48 -33 60
-38 73 -27 13 11 8 18 -37 52 -29 22 -90 57 -135 79 -45 22 -83 45 -86 52 -2
6 -6 4 -10 -6z"/>
<path d="M1913 3236 c-37 -40 -89 -109 -115 -152 -54 -90 -74 -138 -35 -81 76
109 117 158 179 219 61 60 77 88 48 88 -4 0 -39 -33 -77 -74z"/>
<path d="M1031 3175 c-151 -313 -199 -618 -150 -950 11 -70 44 -203 60 -240 5
-11 17 -44 29 -72 23 -61 109 -235 151 -308 16 -27 33 -59 38 -70 16 -37 314
-345 334 -345 7 0 20 -9 52 -37 7 -7 17 -13 22 -13 4 0 25 -15 46 -33 72 -62
96 -78 219 -140 197 -101 305 -138 493 -167 155 -23 368 -17 535 16 208 41
444 141 604 255 119 86 295 266 386 396 94 135 144 236 205 418 4 11 -22 -34
-57 -100 -61 -117 -161 -268 -193 -295 -8 -7 -15 -20 -15 -30 0 -20 -124 -141
-217 -213 -500 -384 -1166 -444 -1688 -151 -319 179 -593 462 -759 784 -75
146 -117 261 -148 403 -19 87 -22 134 -22 312 0 242 13 323 88 550 24 72 42
131 41 133 -2 2 -26 -44 -54 -103z"/>
<path d="M3357 3232 c-21 -21 -37 -43 -37 -50 0 -6 -6 -9 -13 -6 -18 6 -54
-33 -41 -46 10 -10 20 -6 112 55 52 34 88 69 64 63 -4 -1 -16 3 -28 9 -18 11
-25 7 -57 -25z"/>
<path d="M2461 3225 c-35 -8 -103 -33 -150 -57 -113 -56 -239 -178 -294 -285
l-37 -71 -73 41 c-39 23 -75 45 -78 50 -8 12 -19 -18 -19 -52 0 -58 121 -126
158 -89 10 10 15 10 21 -1 12 -19 4 -40 -30 -76 -40 -44 -57 -162 -41 -285 22
-164 86 -305 190 -420 80 -89 270 -177 433 -200 145 -21 367 55 524 181 42 33
74 63 71 67 -2 4 4 41 15 82 26 103 24 111 -12 56 -51 -76 -218 -214 -309
-255 -22 -10 -38 -20 -35 -23 15 -14 -100 -33 -200 -33 -175 0 -288 49 -421
180 -63 62 -89 97 -117 155 -100 210 -86 506 33 704 75 125 244 250 388 286
40 11 51 18 55 37 2 13 1 23 -2 22 -3 0 -35 -7 -70 -14z"/>
<path d="M5015 3184 c-32 -8 -65 -12 -72 -10 -9 4 -13 -5 -13 -30 l0 -35 43 6
c56 9 87 -16 122 -100 l26 -60 -5 85 c-4 84 -21 161 -34 159 -4 0 -34 -7 -67
-15z"/>
<path d="M171 3164 c0 -11 3 -14 6 -6 3 7 2 16 -1 19 -3 4 -6 -2 -5 -13z"/>
<path d="M3594 3147 c4 -21 23 -70 42 -108 68 -136 116 -291 129 -421 5 -49
11 -68 22 -68 28 0 -7 222 -58 368 -32 91 -100 226 -126 252 -14 13 -15 11 -9
-23z"/>
<path d="M210 3159 c0 -5 5 -7 10 -4 6 3 10 8 10 11 0 2 -4 4 -10 4 -5 0 -10
-5 -10 -11z"/>
<path d="M162 3120 c0 -14 2 -19 5 -12 2 6 2 18 0 25 -3 6 -5 1 -5 -13z"/>
<path d="M211 3124 c0 -11 3 -14 6 -6 3 7 2 16 -1 19 -3 4 -6 -2 -5 -13z"/>
<path d="M1395 3096 c-38 -65 -83 -196 -111 -320 -29 -134 -30 -166 -3 -200
27 -35 58 -47 139 -56 l65 -7 -85 -3 -85 -4 85 -5 85 -6 3 -42 c2 -24 7 -43
13 -43 5 0 9 6 10 13 0 6 5 3 10 -8 6 -14 7 -5 3 27 -8 59 4 72 71 81 42 6 57
14 90 49 l40 43 -190 5 c-104 3 -196 9 -203 14 -30 18 10 269 66 424 17 45 29
82 27 82 -2 0 -16 -20 -30 -44z"/>
<path d="M2530 3104 c-76 -16 -217 -83 -245 -116 l-20 -23 22 18 c27 24 204
65 313 73 157 12 289 -42 426 -175 69 -67 84 -87 106 -146 25 -68 25 -68 29
-34 3 20 -4 64 -14 99 -16 55 -28 72 -95 139 -93 93 -188 145 -298 166 -92 18
-138 18 -224 -1z"/>
<path d="M127 2972 c-38 -160 -46 -216 -53 -367 -5 -92 -3 -143 6 -175 7 -25
14 -92 15 -150 4 -149 83 -475 156 -641 20 -47 29 -80 25 -98 -3 -14 -3 -20 1
-13 3 9 12 -2 24 -28 22 -50 23 -54 7 -44 -7 5 -3 -5 10 -20 29 -37 28 -50 -2
-42 -14 3 -28 2 -31 -4 -4 -6 6 -10 24 -10 38 0 57 -25 146 -190 90 -168 91
-171 107 -204 7 -16 41 -58 75 -93 56 -57 100 -115 75 -99 -5 3 -15 -1 -22 -9
-10 -12 -19 -6 -55 35 -23 26 -71 85 -106 129 -34 45 -64 81 -65 81 -2 0 -19
-9 -38 -21 l-35 -21 25 -38 c14 -21 31 -37 37 -35 7 2 50 -39 96 -91 93 -105
122 -118 144 -64 l13 30 31 -18 c17 -9 67 -58 111 -109 44 -50 82 -89 85 -87
3 3 17 -6 32 -20 15 -14 96 -72 179 -127 93 -62 153 -110 157 -123 6 -19 7
-19 14 -4 13 33 58 18 67 -22 3 -15 80 -50 109 -50 9 0 22 -6 28 -14 7 -9 33
-14 74 -14 43 0 81 -8 125 -27 81 -33 272 -82 354 -91 56 -5 65 -4 82 15 11
12 16 24 13 27 -3 4 -64 21 -134 39 -135 35 -288 88 -372 128 -44 21 -52 22
-65 9 -13 -13 -27 -8 -118 43 -319 180 -560 380 -786 650 l-83 99 25 24 24 25
-59 88 c-80 119 -189 331 -235 456 -21 57 -39 102 -40 100 -12 -11 62 -210
121 -326 30 -61 33 -71 19 -82 -19 -16 -19 -16 -84 116 -55 112 -120 286 -120
319 0 13 -11 55 -25 95 -28 85 -70 264 -85 371 -6 41 -13 85 -16 98 -4 20 -1
22 43 22 60 0 77 10 68 40 -5 15 -2 25 6 31 9 5 -14 9 -57 9 l-72 0 -6 103
c-8 109 5 280 30 416 8 46 13 85 12 87 -2 2 -16 -49 -31 -114z m389 -1639 c15
-27 45 -74 66 -105 21 -31 38 -59 38 -62 0 -3 -9 -10 -20 -16 -17 -9 -25 -2
-68 62 -27 40 -57 88 -66 106 -17 32 -17 34 1 48 10 7 19 14 20 14 1 0 14 -21
29 -47z m134 -333 c0 -23 -25 -33 -40 -15 -8 10 -7 17 5 29 19 19 35 13 35
-14z m247 -256 c8 -21 -13 -42 -28 -27 -13 13 -5 43 11 43 6 0 13 -7 17 -16z"/>
<path d="M3270 3077 c0 -15 31 -67 40 -67 6 0 10 4 10 9 0 12 -49 69 -50 58z"/>
<path d="M3415 3008 c-4 -24 -5 -54 -3 -68 6 -38 31 -100 41 -100 4 0 5 -5 2
-11 -4 -6 0 -16 8 -22 25 -20 50 -117 51 -197 1 -69 -1 -75 -20 -78 -19 -3
-22 3 -27 70 -4 40 -16 108 -27 152 -24 93 -85 226 -104 226 -25 0 -28 -33 -6
-60 49 -61 103 -204 115 -306 11 -87 18 -99 76 -128 42 -21 67 -26 124 -26
100 0 110 -9 110 -102 0 -40 -3 -100 -7 -133 -10 -85 7 -37 27 72 8 49 15 118
15 156 l0 67 -109 0 -108 0 -6 103 c-3 66 -14 133 -31 190 -26 86 -86 220
-105 231 -5 4 -13 -13 -16 -36z"/>
<path d="M381 2994 c0 -11 3 -14 6 -6 3 7 2 16 -1 19 -3 4 -6 -2 -5 -13z"/>
<path d="M1570 2938 c-25 -56 -25 -63 6 -87 37 -29 66 -26 105 10 l34 32 -60
23 c-49 18 -60 26 -58 43 4 33 -6 25 -27 -21z"/>
<path d="M2530 2884 c-60 -16 -129 -53 -151 -81 -12 -16 -12 -17 1 -7 56 41
196 68 276 53 152 -28 250 -119 315 -292 l20 -52 -5 56 c-8 106 -88 230 -183
286 -48 28 -138 53 -188 52 -16 0 -55 -7 -85 -15z"/>
<path d="M4306 2840 c-4 -19 -1 -98 7 -175 22 -204 13 -381 -28 -575 -3 -14 1
-7 10 14 33 86 58 257 59 401 0 132 -17 305 -34 350 -7 17 -9 15 -14 -15z"/>
<path d="M791 2834 c0 -11 3 -14 6 -6 3 7 2 16 -1 19 -3 4 -6 -2 -5 -13z"/>
<path d="M4871 2814 c0 -11 3 -14 6 -6 3 7 2 16 -1 19 -3 4 -6 -2 -5 -13z"/>
<path d="M351 2808 c-1 -13 7 -18 25 -18 15 0 23 4 19 11 -4 6 -13 8 -20 5 -8
-3 -16 0 -19 7 -2 7 -5 4 -5 -5z"/>
<path d="M5000 2739 c0 -58 3 -67 23 -78 18 -10 30 -9 60 4 34 14 37 19 37 54
l0 39 -30 -11 c-35 -13 -58 -3 -77 34 -11 21 -13 17 -13 -42z"/>
<path d="M383 2773 c9 -2 25 -2 35 0 9 3 1 5 -18 5 -19 0 -27 -2 -17 -5z"/>
<path d="M782 2760 c0 -14 2 -19 5 -12 2 6 2 18 0 25 -3 6 -5 1 -5 -13z"/>
<path d="M3962 2760 c0 -14 2 -19 5 -12 2 6 2 18 0 25 -3 6 -5 1 -5 -13z"/>
<path d="M4882 2730 c0 -14 2 -19 5 -12 2 6 2 18 0 25 -3 6 -5 1 -5 -13z"/>
<path d="M772 2660 c0 -19 2 -27 5 -17 2 9 2 25 0 35 -3 9 -5 1 -5 -18z"/>
<path d="M1856 2640 c-55 -126 -66 -165 -66 -239 0 -86 22 -238 39 -267 6 -10
20 -42 30 -70 11 -29 37 -77 58 -109 90 -136 94 -146 66 -177 -9 -10 -14 -18
-12 -18 3 0 35 34 72 75 l68 75 -61 76 c-70 87 -118 178 -152 284 -20 66 -23
95 -23 243 0 92 0 167 -1 167 0 0 -8 -18 -18 -40z"/>
<path d="M2183 2597 c-1 -40 -3 -127 -5 -194 l-3 -122 48 -94 c27 -52 51 -107
56 -123 5 -20 23 -38 60 -60 81 -49 154 -69 251 -69 103 0 190 13 170 25 -10
6 4 16 48 36 34 14 62 31 62 37 0 5 14 32 30 59 39 62 38 67 -5 29 -138 -121
-379 -135 -529 -31 l-48 32 22 24 23 23 -42 47 c-84 95 -124 234 -102 356 11
65 10 73 -17 87 -15 8 -17 1 -19 -62z"/>
<path d="M4650 2531 c0 -96 45 -171 102 -171 29 0 33 6 52 67 6 20 3 22 -36
25 -34 2 -44 7 -47 23 -2 11 -10 24 -18 28 -8 5 -23 23 -34 40 l-19 32 0 -44z"/>
<path d="M4976 2479 c-3 -13 -8 -58 -11 -99 -3 -41 -13 -119 -21 -173 -9 -54
-14 -101 -11 -103 7 -8 36 159 48 279 6 60 8 111 5 114 -3 3 -7 -5 -10 -18z"/>
<path d="M1169 2445 c-23 -49 -20 -276 4 -345 42 -119 125 -280 145 -280 31 1
30 20 -8 117 -45 114 -85 257 -95 338 -7 52 -6 54 19 61 42 10 52 0 65 -74 16
-90 39 -167 40 -132 1 27 17 17 23 -15 5 -31 54 -68 82 -61 21 5 24 2 30 -35
11 -66 84 -195 173 -306 40 -49 57 -57 86 -42 29 15 76 59 90 84 8 16 4 15
-26 -8 -19 -15 -42 -25 -49 -22 -25 10 -123 145 -173 238 -27 51 -56 102 -62
114 -20 33 -16 40 23 53 26 9 33 15 23 21 -7 4 -16 5 -19 1 -13 -18 -63 -32
-75 -22 -14 12 -55 169 -55 210 0 22 -2 22 -102 19 l-103 -4 -11 60 -11 60
-14 -30z"/>
<path d="M3481 2267 c-6 -18 -17 -64 -25 -103 -8 -38 -21 -86 -30 -106 -25
-58 -10 -45 23 20 28 56 71 181 71 208 0 27 -29 13 -39 -19z"/>
<path d="M555 2210 c10 -65 33 -168 34 -150 1 23 -28 183 -35 189 -3 3 -3 -14
1 -39z"/>
<path d="M3931 2164 c0 -11 3 -14 6 -6 3 7 2 16 -1 19 -3 4 -6 -2 -5 -13z"/>
<path d="M3731 2144 c0 -11 3 -14 6 -6 3 7 2 16 -1 19 -3 4 -6 -2 -5 -13z"/>
<path d="M3907 2077 c-27 -91 -108 -250 -178 -346 -52 -73 -59 -88 -50 -107 9
-20 3 -30 -60 -89 -124 -116 -268 -214 -406 -273 -108 -47 -111 -48 -124 -15
-18 49 -59 53 -59 6 0 -27 -65 -98 -80 -88 -6 4 -10 17 -10 31 0 19 -5 24 -26
24 -24 0 -26 -3 -21 -30 9 -40 -7 -47 -139 -60 -150 -14 -422 9 -549 47 -12 4
-1 -12 29 -41 27 -25 59 -47 70 -48 37 -3 51 -5 66 -11 8 -3 22 -6 30 -6 8 0
38 -3 65 -7 65 -8 151 -8 195 0 28 4 30 4 10 -3 -21 -8 -17 -9 23 -10 27 -1
46 3 43 8 -8 12 120 43 162 39 17 -1 32 -7 32 -12 0 -6 5 -5 11 1 6 6 18 9 25
6 8 -3 14 -1 14 5 0 5 7 13 16 16 8 3 12 2 9 -4 -3 -6 -4 -10 -1 -10 16 0 192
68 247 96 91 45 260 160 341 231 88 77 164 163 139 156 -16 -4 -19 0 -17 31 2
19 14 50 27 68 98 130 158 264 188 416 13 63 -1 51 -22 -21z"/>
<path d="M1561 2116 c-9 -11 -6 -12 14 -8 14 2 25 8 25 13 0 14 -26 11 -39 -5z"/>
<path d="M1341 2095 c1 -19 18 -51 18 -35 0 8 -4 22 -9 30 -5 8 -9 11 -9 5z"/>
<path d="M3210 2040 c-12 -16 -17 -30 -12 -30 11 0 27 18 35 43 9 25 1 21 -23
-13z"/>
<path d="M4924 2055 c-6 -16 12 -45 27 -45 4 0 18 10 29 22 19 21 20 23 3 30
-30 11 -53 9 -59 -7z"/>
<path d="M4777 2005 c-5 -16 -10 -38 -13 -48 -5 -17 -4 -18 25 -3 16 9 45 16
63 17 32 1 32 1 -14 17 -26 8 -49 22 -51 31 -1 9 -6 3 -10 -14z"/>
<path d="M0 1927 c0 -88 4 -109 41 -219 22 -68 43 -126 45 -129 6 -11 65 14
60 26 -35 83 -82 214 -110 305 l-35 115 -1 -98z"/>
<path d="M3445 1918 c-182 -274 -486 -445 -806 -451 l-84 -2 -2 40 c-3 73 -3
72 -13 53 -6 -9 -13 -40 -18 -70 -6 -48 -10 -53 -34 -56 -38 -5 -187 33 -274
69 -66 28 -74 34 -68 53 9 29 85 159 98 168 17 11 45 -11 48 -39 3 -24 11 -30
76 -50 40 -13 92 -25 115 -27 23 -3 56 -7 72 -10 38 -5 190 19 273 44 92 27
193 91 253 160 53 59 135 180 123 180 -3 0 -37 -28 -74 -62 -113 -104 -225
-162 -375 -193 -82 -17 -92 -16 -272 15 -69 12 -174 54 -241 97 -29 18 -59 33
-67 33 -7 0 -73 -66 -146 -147 -187 -210 -163 -189 -193 -170 -23 16 -25 16
-31 -3 -7 -23 10 -60 29 -60 11 0 98 62 181 128 6 4 30 18 54 30 33 16 48 19
58 10 19 -15 16 -52 -7 -91 -30 -50 -33 -111 -6 -135 71 -66 283 -116 346 -82
10 5 42 7 76 2 57 -7 214 0 281 13 37 7 41 -1 44 -82 2 -51 3 -52 28 -46 35 8
34 6 35 60 1 33 5 47 14 46 21 -5 13 7 -13 17 -15 6 -25 17 -25 30 0 24 26 38
42 22 7 -7 17 -5 32 9 11 11 40 31 63 43 133 75 273 208 367 350 45 70 101
176 92 176 -2 0 -25 -33 -51 -72z"/>
<path d="M4925 1960 c3 -5 13 -10 21 -10 8 0 14 5 14 10 0 6 -9 10 -21 10 -11
0 -17 -4 -14 -10z"/>
<path d="M3772 1915 c-12 -25 -20 -45 -17 -45 7 0 47 81 43 86 -3 2 -14 -17
-26 -41z"/>
<path d="M4367 1859 c-77 -176 -240 -425 -375 -569 l-60 -65 -36 34 c-20 19
-36 41 -36 49 0 8 14 32 31 53 17 21 29 45 26 51 -2 8 -12 -2 -23 -21 -11 -18
-30 -47 -43 -63 -31 -38 -39 -104 -16 -147 16 -31 19 -33 56 -27 49 8 97 38
173 110 57 54 96 71 96 42 0 -8 -26 -43 -57 -78 -43 -48 -36 -42 32 24 85 83
88 88 72 106 -23 25 -21 41 6 70 15 17 18 26 9 29 -6 3 -9 10 -5 16 4 7 9 20
10 29 2 10 23 57 48 105 46 88 138 320 133 334 -2 4 -20 -33 -41 -82z"/>
<path d="M5000 1925 c0 -9 6 -12 15 -9 8 4 15 7 15 9 0 2 -7 5 -15 9 -9 3 -15
0 -15 -9z"/>
<path d="M301 1914 c0 -11 3 -14 6 -6 3 7 2 16 -1 19 -3 4 -6 -2 -5 -13z"/>
<path d="M290 1875 c0 -2 7 -8 15 -15 12 -10 15 -10 15 2 0 8 -7 15 -15 15 -8
0 -15 -1 -15 -2z"/>
<path d="M3434 1632 c-50 -48 -130 -112 -177 -142 -47 -30 -88 -61 -91 -68
-16 -36 176 98 259 182 137 137 142 155 9 28z"/>
<path d="M0 1669 c0 -5 5 -7 10 -4 5 3 10 8 10 11 0 2 -4 4 -10 4 -5 0 -10 -5
-10 -11z"/>
<path d="M10 1640 c0 -5 5 -10 11 -10 5 0 7 5 4 10 -3 6 -8 10 -11 10 -2 0 -4
-4 -4 -10z"/>
<path d="M20 1615 c0 -5 5 -17 10 -25 5 -8 10 -10 10 -5 0 6 -5 17 -10 25 -5
8 -10 11 -10 5z"/>
<path d="M5090 1530 c-24 -51 -20 -77 11 -65 10 4 15 22 16 60 1 30 0 55 -1
55 -1 0 -13 -23 -26 -50z m10 -50 c0 -5 -5 -10 -11 -10 -5 0 -7 5 -4 10 3 6 8
10 11 10 2 0 4 -4 4 -10z"/>
<path d="M226 1494 c-20 -11 -35 -13 -49 -7 -16 7 -39 1 -99 -26 l-78 -36 0
-42 0 -42 42 15 c23 8 49 13 58 12 8 -1 47 15 85 37 64 37 70 43 70 73 0 17 0
32 0 32 0 -1 -13 -8 -29 -16z"/>
<path d="M4877 1461 c-4 -17 -3 -21 5 -13 5 5 8 16 6 23 -3 8 -7 3 -11 -10z"/>
<path d="M1150 1456 c0 -2 8 -10 18 -17 15 -13 16 -12 3 4 -13 16 -21 21 -21
13z"/>
<path d="M4856 1413 c-6 -14 -5 -15 5 -6 7 7 10 15 7 18 -3 3 -9 -2 -12 -12z"/>
<path d="M4974 1398 l-9 -32 72 -38 c39 -21 74 -38 77 -38 3 0 6 16 6 35 0 32
-5 37 -63 70 -35 19 -66 35 -69 35 -3 0 -9 -14 -14 -32z"/>
<path d="M4831 1363 c-10 -26 -10 -27 4 -9 8 11 15 23 15 28 0 15 -7 8 -19
-19z"/>
<path d="M98 1311 c-51 -26 -94 -55 -96 -64 -3 -13 2 -15 29 -7 45 13 56 0 61
-69 4 -51 10 -67 47 -116 37 -48 41 -58 29 -73 -7 -9 10 -1 37 18 28 18 51 34
52 34 1 1 -32 42 -73 91 -41 49 -74 95 -74 102 0 14 39 43 58 43 9 0 12 -6 8
-16 -3 -9 -2 -12 5 -8 14 8 48 -25 90 -86 l32 -47 24 27 c13 15 23 31 23 36 0
8 -89 115 -131 156 l-27 27 -94 -48z"/>
<path d="M1290 1305 c19 -19 36 -35 39 -35 3 0 -10 16 -29 35 -19 19 -36 35
-39 35 -3 0 10 -16 29 -35z"/>
<path d="M4927 1301 c-2 -11 0 -25 7 -32 8 -9 7 -10 -4 -5 -8 4 -7 1 4 -6 53
-37 61 -46 49 -59 -9 -9 -19 -6 -44 15 -17 15 -32 26 -34 24 -45 -62 -65 -98
-48 -90 10 6 40 10 66 10 29 0 53 6 62 16 15 14 20 14 54 -3 20 -11 43 -27 50
-35 23 -27 31 -18 31 37 l0 52 -89 48 c-49 26 -91 47 -94 47 -2 0 -7 -9 -10
-19z"/>
<path d="M4786 1278 l-18 -33 21 25 c18 22 26 40 18 40 -1 0 -11 -15 -21 -32z"/>
<path d="M1340 1256 c0 -2 8 -10 18 -17 15 -13 16 -12 3 4 -13 16 -21 21 -21
13z"/>
<path d="M1410 1195 c13 -14 26 -25 28 -25 3 0 -5 11 -18 25 -13 14 -26 25
-28 25 -3 0 5 -11 18 -25z"/>
<path d="M1465 1150 c10 -11 20 -20 23 -20 3 0 -3 9 -13 20 -10 11 -20 20 -23
20 -3 0 3 -9 13 -20z"/>
<path d="M1500 1126 c0 -2 8 -10 18 -17 15 -13 16 -12 3 4 -13 16 -21 21 -21
13z"/>
<path d="M1540 1096 c0 -2 8 -10 18 -17 15 -13 16 -12 3 4 -13 16 -21 21 -21
13z"/>
<path d="M297 1069 c7 -7 15 -10 18 -7 3 3 -2 9 -12 12 -14 6 -15 5 -6 -5z"/>
<path d="M1610 1046 c0 -2 8 -10 18 -17 15 -13 16 -12 3 4 -13 16 -21 21 -21
13z"/>
<path d="M1656 1009 c6 -10 104 -62 104 -55 0 3 -25 18 -55 34 -30 17 -52 26
-49 21z"/>
<path d="M4512 1004 c-15 -17 -16 -59 -1 -87 l12 -22 -24 20 c-23 20 -23 20 1
-11 14 -17 30 -30 35 -29 27 5 52 20 67 39 19 23 25 61 7 51 -6 -4 -27 6 -47
23 -31 24 -40 27 -50 16z"/>
<path d="M3544 974 c-18 -14 -18 -15 4 -4 12 6 22 13 22 15 0 8 -5 6 -26 -11z"/>
<path d="M5060 938 c-224 -210 -287 -278 -254 -278 4 0 70 59 148 132 78 72
147 137 154 144 8 6 12 21 10 32 -3 19 -9 15 -58 -30z"/>
<path d="M1770 945 c0 -2 18 -14 40 -25 22 -11 40 -18 40 -15 0 2 -18 14 -40
25 -22 11 -40 18 -40 15z"/>
<path d="M4195 852 c-55 -54 -147 -133 -204 -177 -108 -81 -123 -114 -24 -52
127 78 271 211 310 285 12 23 21 42 20 42 -1 0 -47 -44 -102 -98z"/>
<path d="M236 877 c-32 -26 -33 -60 -1 -65 11 -2 44 -10 73 -19 49 -15 54 -15
72 2 28 25 25 49 -11 79 -40 34 -93 35 -133 3z"/>
<path d="M1865 893 c14 -13 137 -65 142 -60 2 3 -13 11 -34 20 -21 8 -56 23
-78 32 -22 9 -35 13 -30 8z"/>
<path d="M116 838 c-13 -62 0 -99 53 -152 l49 -48 33 30 c40 36 36 43 -38 66
-63 21 -76 35 -83 95 l-6 46 -8 -37z"/>
<path d="M3320 860 c-8 -5 -10 -10 -5 -10 6 0 17 5 25 10 8 5 11 10 5 10 -5 0
-17 -5 -25 -10z"/>
<path d="M4470 833 c-28 -37 -212 -207 -283 -262 -60 -46 -107 -61 -107 -35 0
9 -4 12 -10 9 -5 -3 -10 -22 -10 -41 0 -30 4 -35 30 -40 18 -4 27 -11 23 -18
-8 -13 61 41 183 145 90 78 136 123 104 104 -8 -5 2 10 23 33 20 23 37 46 37
50 0 5 9 18 20 30 12 12 18 22 14 22 -3 0 -1 7 6 15 8 9 8 15 2 15 -6 0 -20
-12 -32 -27z"/>
<path d="M2021 826 c8 -8 149 -56 163 -55 6 0 -19 11 -56 24 -92 32 -114 38
-107 31z"/>
<path d="M3108 783 c7 -3 16 -2 19 1 4 3 -2 6 -13 5 -11 0 -14 -3 -6 -6z"/>
<path d="M0 722 c0 -55 4 -67 35 -108 19 -25 35 -54 35 -65 0 -24 11 -24 41 0
l23 19 -29 53 c-15 29 -46 78 -67 108 l-38 54 0 -61z"/>
<path d="M490 761 c-6 -12 -7 -21 -1 -21 10 0 24 30 17 37 -2 3 -9 -5 -16 -16z"/>
<path d="M3068 773 c7 -3 16 -2 19 1 4 3 -2 6 -13 5 -11 0 -14 -3 -6 -6z"/>
<path d="M2208 763 c7 -3 16 -2 19 1 4 3 -2 6 -13 5 -11 0 -14 -3 -6 -6z"/>
<path d="M3028 763 c7 -3 16 -2 19 1 4 3 -2 6 -13 5 -11 0 -14 -3 -6 -6z"/>
<path d="M2248 753 c6 -2 18 -2 25 0 6 3 1 5 -13 5 -14 0 -19 -2 -12 -5z"/>
<path d="M2978 753 c7 -3 16 -2 19 1 4 3 -2 6 -13 5 -11 0 -14 -3 -6 -6z"/>
<path d="M2298 743 c6 -2 18 -2 25 0 6 3 1 5 -13 5 -14 0 -19 -2 -12 -5z"/>
<path d="M2923 743 c9 -2 23 -2 30 0 6 3 -1 5 -18 5 -16 0 -22 -2 -12 -5z"/>
<path d="M727 727 c-13 -34 95 -170 154 -194 24 -10 26 -9 25 12 -1 14 -32 55
-84 109 -45 47 -84 86 -86 86 -2 0 -6 -6 -9 -13z"/>
<path d="M2353 733 c9 -2 23 -2 30 0 6 3 -1 5 -18 5 -16 0 -22 -2 -12 -5z"/>
<path d="M2853 733 c9 -2 25 -2 35 0 9 3 1 5 -18 5 -19 0 -27 -2 -17 -5z"/>
<path d="M4505 669 c-66 -66 -317 -275 -379 -315 -29 -18 -29 -18 -52 9 -13
15 -25 27 -27 27 -3 0 -10 -13 -17 -30 -17 -41 8 -83 46 -76 33 6 38 10 214
148 140 109 271 243 283 288 3 11 4 20 3 20 -1 0 -33 -32 -71 -71z"/>
<path d="M2428 723 c12 -2 30 -2 40 0 9 3 -1 5 -23 4 -22 0 -30 -2 -17 -4z"/>
<path d="M2768 723 c12 -2 30 -2 40 0 9 3 -1 5 -23 4 -22 0 -30 -2 -17 -4z"/>
<path d="M2558 713 c29 -2 74 -2 100 0 26 2 2 3 -53 3 -55 0 -76 -1 -47 -3z"/>
<path d="M196 526 c-105 -95 -191 -177 -194 -184 -2 -6 6 -20 17 -31 12 -12
21 -27 21 -34 0 -6 17 -23 37 -37 42 -28 123 -108 123 -121 0 -5 6 -9 12 -9 7
0 3 10 -9 22 l-22 22 30 22 30 22 -38 29 c-21 16 -60 44 -86 62 -45 31 -55 50
-30 58 6 2 25 -8 43 -23 24 -21 36 -25 48 -18 27 18 24 31 -14 74 l-37 41 43
39 c45 42 60 48 61 28 0 -7 4 -3 9 9 10 25 106 93 131 93 44 0 147 -65 156
-99 3 -13 0 -33 -7 -45 -7 -12 4 -6 25 14 46 44 58 65 50 91 -6 17 -165 134
-198 144 -6 2 -97 -74 -201 -169z"/>
<path d="M4722 671 c-18 -52 -15 -83 15 -128 27 -43 63 -63 138 -80 25 -5 39
-14 37 -22 -3 -14 60 33 93 69 20 22 20 22 0 37 -15 11 -36 13 -87 8 -50 -5
-74 -2 -96 9 -32 17 -69 69 -81 114 l-7 27 -12 -34z"/>
<path d="M5060 675 c-7 -9 -19 -14 -27 -11 -8 3 -13 -2 -13 -13 0 -10 8 -21
18 -23 13 -4 21 3 29 28 11 38 11 40 -7 19z"/>
<path d="M5089 507 c-14 -12 -82 -68 -150 -124 -68 -56 -187 -156 -265 -222
-127 -108 -143 -118 -157 -104 -13 14 -16 13 -22 -6 -3 -11 -3 -25 0 -31 7
-12 62 -13 67 -2 7 18 328 279 442 359 80 56 118 98 114 125 l-3 26 -26 -21z"/>
<path d="M0 460 c0 -46 3 -59 12 -54 21 11 58 47 58 55 0 3 -16 19 -35 33
l-35 27 0 -61z"/>
<path d="M793 412 c-101 -76 -129 -104 -75 -76 15 7 39 14 55 14 37 0 113 70
119 110 3 17 4 30 4 29 -1 0 -47 -35 -103 -77z"/>
<path d="M4423 359 c-118 -94 -150 -124 -146 -139 4 -16 18 -9 97 53 50 40
107 84 126 98 28 21 91 109 78 109 -2 0 -72 -54 -155 -121z"/>
<path d="M570 389 c-117 -110 -140 -123 -201 -115 -66 9 -85 -4 -64 -45 8 -15
16 -38 16 -51 1 -17 3 -18 6 -5 3 10 14 17 27 17 12 0 42 13 67 28 47 31 229
214 229 232 0 14 3 16 -80 -61z"/>
<path d="M3705 351 c-71 -36 -177 -83 -235 -104 -77 -27 -94 -36 -65 -33 52 5
97 15 110 25 5 5 33 14 60 20 72 18 172 76 260 153 14 13 8 10 -130 -61z"/>
<path d="M872 322 c-59 -55 -84 -86 -88 -108 -6 -31 -5 -31 54 26 57 54 76 65
146 86 36 11 36 23 -1 51 l-29 22 -82 -77z"/>
<path d="M2908 333 c7 -3 16 -2 19 1 4 3 -2 6 -13 5 -11 0 -14 -3 -6 -6z"/>
<path d="M1035 254 c-14 -7 -54 -38 -87 -69 -34 -30 -67 -55 -75 -55 -7 0 -13
-7 -13 -15 0 -24 37 -17 81 14 73 53 135 50 159 -9 l13 -31 28 27 c53 51 29
121 -48 143 -22 6 -39 5 -58 -5z"/>
<path d="M3888 188 c-63 -36 -81 -59 -60 -72 13 -8 75 38 106 78 15 20 26 36
24 35 -2 0 -33 -19 -70 -41z"/>
<path d="M4107 208 c-8 -29 0 -42 81 -126 52 -53 77 -72 96 -72 14 0 26 3 25
8 0 4 -17 41 -37 82 -37 75 -87 124 -121 118 -9 -1 -21 1 -27 5 -7 4 -14 -2
-17 -15z"/>
<path d="M601 154 c-11 -30 -10 -38 3 -59 9 -14 21 -25 26 -25 5 0 17 -14 27
-30 15 -27 23 -30 66 -30 l49 0 -26 30 c-14 17 -28 47 -32 68 -9 48 -20 62
-53 62 -15 0 -31 4 -37 10 -7 7 -14 -2 -23 -26z"/>
<path d="M15 160 c10 -11 20 -20 23 -20 3 0 -3 9 -13 20 -10 11 -20 20 -23 20
-3 0 3 -9 13 -20z"/>
<path d="M2668 163 c12 -2 32 -2 45 0 12 2 2 4 -23 4 -25 0 -35 -2 -22 -4z"/>
<path d="M3096 138 c-22 -52 -20 -65 16 -99 36 -32 95 -42 84 -13 -3 9 -6 22
-6 30 0 8 -15 31 -34 51 -18 21 -36 45 -38 53 -4 10 -11 3 -22 -22z"/>
<path d="M2500 144 c-10 -11 -11 -20 -3 -32 9 -14 31 -17 144 -18 l134 0 9
-42 c12 -59 36 -56 36 4 0 83 -2 84 -145 77 -109 -5 -127 -4 -144 11 -17 15
-19 15 -31 0z"/>
<path d="M255 94 c-39 -34 -66 -52 -77 -48 -10 3 -21 -3 -27 -15 -14 -25 -2
-33 40 -24 46 9 147 119 127 138 -1 2 -30 -21 -63 -51z"/>
<path d="M50 137 c0 -2 15 -16 33 -33 l32 -29 -29 33 c-28 30 -36 37 -36 29z"/>
<path d="M1315 123 c-57 -14 -116 -48 -145 -85 -25 -31 -28 -39 -14 -35 30 10
125 11 169 3 l40 -7 -37 22 c-36 22 -51 49 -27 49 6 0 36 -14 66 -31 70 -40
156 -47 161 -13 2 17 -12 29 -77 63 -77 40 -94 44 -136 34z"/>
<path d="M3580 55 l-115 -43 155 -4 c85 -2 157 -3 158 -2 2 1 -5 23 -17 48
-25 57 -29 57 -181 1z"/>
<path d="M0 63 c0 -16 76 -70 86 -61 2 2 -17 21 -41 42 -36 30 -45 33 -45 19z"/>
</g>
</svg>