<svg xmlns="http://www.w3.org/2000/svg" viewBox="0 0 1024 1024" width="256" height="256" >
    <path fill="#39383A"
        d="M527.2 197.7l3.3.014c24.27.35 50 7.708 67.5 25.3v2l3 1v2h2l2 3h3c2.6 2.9 4.8 5.7 7 9l2-4 1.3 2.4c1.6 2.8 1.6 2.8 4.7 4.6.7 2.3.7 2.3 1.1 4.9.5 2.8 1 5.3 1.9 8.1.1 1.6.1 3.3.1 4.9l.008 2.6C626 266 626 266 625.4 268.2L625 270c1.4 2.1 1.4 2.1 3 4v3q1 2.2 1.9 4.4c2.1 5.2 2.8 10 3.1 15.6h-2l.2 2.3C631 302 631 302 629.6 303.8 628 305 628 305 626 305v2h-2l1 3c-.9 2.7-.9 2.7-2 5l-1-3h-2l.3 3.7c0 6.6-2.2 12.4-4.4 18.5l-1.3 3.6c-9.7 27.8-23.1 49.6-50.1 63.1-6.9 3.3-14.2 5.8-21.5 8.1l2 2c-4.9 1.8-9.9 2.9-15 4 3 2 4.7 2.5 8.2 3.1l2.7.5L543 419v3l-1 1l2.1.6c8.1 2.5 13 6.5 18.9 12.4 11.4 11.1 23.3 14 38.5 17.4 14.1 3.2 26.8 8 39.6 14.6 9.6 4.9 18.9 7.8 29.5 9.9l3.8.8c6.2 1.2 12.4 2.5 18.6 3.6l3.3.7q3.1.6 6.2 1.2C721 487.7 732.2 495.9 746 508l2-2a105 105 0 0 1 5 4v2l6 2v2h2l1-1c1.8 0 1.8 0 4 1 3.4 4.7 4.4 8.7 5.4 14.2 1.7 7.6 5.2 14.5 9.6 20.8v2h2c2.9 6.6 2.9 6.6 4 10h2c2.2 3.2 2.2 4.3 2 8h2c2.4 4.6 4.4 9 6 14l1.1 2.2C801 589 801 589 801 592l3 1c.8 1.9 1.6 3.8 2.2 5.8 1.1 3.1 2.4 6.2 3.8 9.2l3-1c3.1 1.5 3.9 2.8 5.3 6 1.2 4.9.9 10 .8 15h3c2.7 3.2 3.9 5.2 4.3 9.4L826 640l2 1v4h-2l-1 5-3-1 .5 3.5c.5 4.2.6 8.3.5 12.5h-3l0 2.1c-.7 29.7-.7 29.7-6.1 42.1-2.3 5.3-2.2 10.2-1.8 15.8l2.2-.8c2.8-.2 2.8-.2 5.1 1.4L822 728c2.6 1.5 5.3 2.8 8 4.1l2.1 1.1c5.2 2.5 10 4.8 15.8 5.8 4.4.8 8.1 2.1 12.1 4.1v2l2.6-.1c3.1.1 5.4.7 8.3 1.6 4.2 1.1 8.5 1.8 12.8 2.6q2.8.5 5.6 1l2.5.5c3.7.7 7.4 1.7 11 2.8 7.4 2 14.8 3.9 22.3 5.7v2l2.5.2c5.7 1.3 10.6 4.1 14 9 0 2 0 2 0 2h3c2 5.8 3.4 10.8 3 17h-2l1 3-2 2h-3v3l-2.2.8c-2.8 1-2.8 1-4.4 3.1-3.1 2.9-6.4 4.4-10.1 6.2l-2.1 1c-3.3 1.6-6.6 3.1-9.9 4.5-3.2 1.3-3.2 1.3-6.2 3.4-2.7.1-2.7.1-5 0v2c-4.8 1.3-8.9 2.3-14 2v2l-1.6.3c-4.7.9-9.3 1.9-13.9 3.1-18.2 4.7-36 6.8-54.8 6.7l-3.7.012c-9.8 0-9.8 0-14-.7-2.9-.4-4.4-.3-7.2.5-5.9 1.4-11.7 1.2-17.7 1.1-3.8-.1-7.6 0-11.4.5-5.6.7-11.1.6-16.7.6l-3.2-.014q-3.9-.018-7.7-.05v-2l-2.3.5-3.1.6-3 .6c-3 .3-5.1.2-8-.2-7.2-.8-14.3.2-21.4 1q-3.1.3-6.3.7c-1.9.2-3.8.4-5.7.6-7.5.7-7.5.7-10.3-.7-2.4-.1-4.7-.1-7.1-.1l-2.2-.003q-2.3 0-4.5.006c-2.3.005-4.6 0-6.9-.007q-2.2 0-4.4.004l-2-.006c-4.7.023-9.2.513-13.9 1.1-1.8.017-3.5 0-5.3-.062-4.9-.06-9.2.65-14 1.6-3.5.6-6.9.55-10.5.4-2.2-.064-2.2-.064-4 .52-2.4.558-4.5.636-6.9.64l-2.8.004-2.9-.012-2.8.012c-4.7-.007-9.1-.288-13.8-1.1-1.8.23-3.7.465-5.5.7-4.5.5-9 .3-13.5.2-2.9-.152-2.9-.152-5 1.1-1.9-.34-1.9-.34-4.1-.9l-2.2-.6L541 841l-1 2c-21.4.2-21.4.2-31.3-.7-5.4-.4-10.9-.7-16.4-1l-3.2-.2c-5-.2-9.6-.2-14.5.8-7.2 1.5-14.4 1.2-21.7 1.1-12.4-.2-12.4-.2-24.7.7-3.1.3-6.1.3-9.2.2-2.2 0-2.2 0-4.5.6-2.8.5-4.5.2-7.2-.4-9.3-2.4-9.3-2.4-18.4-1.1l-3-2c-1.9.36-1.9.36-4 1-2 .07-3.9.085-5.9.063l-3.4-.024-7.2-.078-3.4-.024-3.1-.035c-2.8.093-5.2.498-7.9 1.1-4.6.285-9.1.035-13.6-.562-4-.495-7.4-.038-11.4.562-3.3.037-6.6 0-9.9-.062-2.9.057-5.3.457-8.1 1.062-3.7.128-6.5.176-10-1-1.5-.2-3.1-.363-4.6-.5l-2.7-.254q-2.6-.234-5.1-.46c-4.8-.465-9-1.334-13.6-2.8v-2l-2.1-.148c-5.8-.464-11.3-1.229-16.9-2.5-2.1-.512-2.1-.512-4 .7-8.7.616-16.8-.149-25.4-1.9-6.5-1.2-12.8-1.6-19.4-1.9-3.6-.126-6.8-.41-10.2-1.3-3.5-.227-7-.38-10.5-.523-3.8-.513-6.2-1.66-9.5-3.5a108 108 0 0 0-4.9-1.7l-2.4-.762L165 823v-2l-3.4.125c-8.4-.044-15.4-2.69-23-6-2.6-1.2-2.6-1.2-5.6-2.1v-2l-6-1v-2h-3l-1-2c-2-.652-2-.652-4-1v-3l-2.4-.437C114 801 114 801 112 800v-2l-3-1c-.7-2-.7-2-1.1-4.5-.4-2.4-.4-2.4-1-4.5l-2-1v-2h4l-3-4h2l2-5h3v-3l6-1v-2l1.9-.312L123 769l1-3c7.7-7 17.8-10.3 27.8-12.3 3.3-.7 3.3-.7 6.9-2.2 4.9-1.9 9.8-2.7 15-3.6q2.8-.5 5.5-1l2.4-.4c2.4-.5 2.4-.5 4.8-1.5 2.6-1 5-1.6 7.8-2l3.1-.5 3.2-.5 3.1-.5c8.5-1.4 8.5-1.4 12.6-2l3.2-.5 2.8-.4c4.7-1 8.6-3.1 12.7-5.6l2.1-1.1c3.4-2.2 4.7-4.1 5.8-8 1.2-7.5 1.1-14.6.4-22.1-.4-5 .1-9.4 1.2-14.3.5-2.5.5-4.7.3-7.2-.1-4.6 1.6-7.5 4.1-11.3a281 281 0 0 0 3.3-5.6l1.6-2.7c1.3-3.1 1.2-5.4 1.2-8.7 1.1-2.7 1.1-2.7 2.4-5.3l1.4-2.6L260 642l1-2h2l1-2l1 3c2.6-6.2 4.9-12.5 7-18.8C278.6 602.8 285.4 584.1 295 566l1.3-2.4C305.2 546.6 315.1 529.3 328 515l2.3-2.6a613 613 0 0 1 4.6-5.1c1.7-1.9 3.4-3.9 5-6 12.7-14.8 33.7-20.1 51.9-24.2 10.2-2.4 19.2-6.7 28.6-11.4 8.6-4.3 16.9-8.2 26.2-10.7l2.7-.7c8.3-2.3 16.7-4.3 25.2-6.1 9.7-2.2 16.6-5.9 24.4-12.1 5.8-4.5 11.7-8.6 18.1-12.1h-4c-4-5-4-5-4-9l-4 1-.6-1.9c-2.3-3.5-5.7-3.8-9.6-4.6q-2.3-.5-4.6-.9c-3.3-.9-5.5-1.7-7.5-4.4l-1.2-2.1c-1.6-2.8-3.1-4.9-5.4-7.1h3l-2.4-2c-8.7-7.6-15.6-16-22.4-25.4-1.3-1.7-1.3-1.7-3.2-3.6a176 176 0 0 0-5 1c-2.3-.437-2.3-.437-4-1l-1-4h-2c-10.1-18.6-10.1-18.6-13-27l-1-2.7c-1.7-5.3-2.3-10.8-3-16.3a500 500 0 0 0-.9-6.2c-1.3-9.5-1.6-18.6 2.4-27.5 1.3-2.9 1.6-4.4 1.8-7.4.6-3.8.6-3.8 3-6.4L431 265l3 1l1-3c.7-1.3 1.3-2.7 2-4l2 1v2l1.1-3c8.7-24.3 21.4-40.8 45-52.3 13.6-6.4 27.1-9.1 42.1-9z" />
    <path fill="#343636"
        d="M263 638h1c.1 6.4.1 6.4-.6 9.6-.6 2.4-.6 2.4.1 4.9.4 2.4.4 2.4-.5 4.3-5.9 12-3.5 30.7-.1 43.2l.7 2.8c2.8 10.9 8.5 19.9 15.4 28.6C281 734 281 734 282 736.2c1.3 2.3 2.6 2.7 5 3.8 2.8 2 5.6 4.1 8.3 6.1 2.2 1.5 4.2 2.8 6.7 3.9v2l3.4.875L309 754l1 2l2 .5l2 .5l1 2l-7-1c3.6 2.4 7.3 3.4 11.4 4.5l2.4.67a136 136 0 0 0 17 3.47C341 767 341 767 342 768c1.4.21 2.8.37 4.3.5c4 .41 7.8 1.01 11.7 2.01 4.8 1.17 9.1 1.67 14 1.47 2 .027 2 .027 4.1.586 2.1.663 2.1.663 4.9-.559 1.7.085 3.4.237 5.1.438 3.5.416 3.5.416 6.9.562l3.2.477c3.8.515 7.5.737 11.3.898 7.5.382 14.9 1.156 22.3 2.063l3.1.37 3 .376 2.6.33c2.7.521 5 1.452 7.5 2.486 2.3.292 4.5.492 6.8.625l2 .117c5.4.286 10.7.29 16.1.239 4-.024 7.9.096 11.8.375 39.7 2.783 80.7 1.085 120.4-1.293l3.9-.227c7.1-.475 14-1.379 21-2.836v2l3-.275q5.6-.507 11.1-1.007 2.4-.216 4.8-.436 3.5-.317 6.9-.626l2.1-.199c3.3-.291 6.5-.453 9.8-.432 3.2-.025 4.4-.576 7.1-2.025l3 1a73 73 0 0 0 4.8.188l2.5.042c2.7-.129 2.7-.129 5.5-1.218 3.6-1.152 6.6-1.286 10.3-1.387 10.7-.46 21.3-2.733 31.6-5.723 2.6-.73 4.9-1.195 7.5-1.402 9.7-.982 17.8-3.566 26.7-7.5l2.6-.914c2.7-1.262 3.9-2.603 5.8-4.961 2.9-3.46 5.7-5.8 9.6-8.125 3.3-2.078 6-4 8.8-6.75L794 735h2l.7-1.645c1.6-2.966 3.6-5.425 5.7-8.043l2.4-2.949C807 720 807 720 810 719l2-2v8l2.2-.75c3.9-.348 4.8 1.31 7.8 3.75 2.6 1.5 5.3 2.813 8 4.125l2.1 1.05c5.2 2.549 10 4.802 15.8 5.763 4.4.825 8.1 2.13 12.1 4.062v2l2.6-.125c3.1.112 5.4.684 8.3 1.555 4.2 1.138 8.5 1.847 12.8 2.633q2.8.516 5.6 1.035l2.5.453c3.7.737 7.4 1.745 11 2.761 7.4 2.024 14.8 3.85 22.3 5.688v2l2.5.188c5.7 1.33 10.6 4.092 14 9 0 2 0 2 0 2h3c2 5.823 3.4 10.834 3 17h-2l1 3-2 2h-3v3l-2.2.75c-2.8 1.051-2.8 1.051-4.4 3.074-3.1 2.87-6.4 4.439-10.1 6.239l-2.1 1.025c-3.3 1.602-6.6 3.125-9.9 4.533-3.2 1.298-3.2 1.298-6.2 3.379-2.7.125-2.7.125-5 0v2c-4.8 1.336-8.9 2.253-14 2v2l-1.6.297c-4.7.895-9.3 1.924-13.9 3.123-18.2 4.716-36 6.766-54.8 6.705l-3.7.012c-9.8-.011-9.8-.011-14-.703-2.9-.427-4.4-.296-7.2.504-5.9 1.36-11.7 1.199-17.7 1.075-3.8-.066-7.6-.008-11.4.48-5.6.694-11.1.615-16.7.57l-3.2-.014q-3.9-.018-7.7-.049v-2l-2.3.473-3.1.59-3 .597c-3 .283-5.1.205-8-.191-7.2-.838-14.3.178-21.4.968q-3.1.335-6.3.663c-1.9.197-3.8.403-5.7.609-7.5.67-7.5.67-10.3-.709-2.4-.099-4.7-.14-7.1-.133l-2.2-.003q-2.3 0-4.5.006c-2.3.005-4.6 0-6.9-.007q-2.2 0-4.4.004l-2-.006c-4.7.023-9.2.513-13.9 1.139-1.8.017-3.5 0-5.3-.062-4.9-.06-9.2.65-14 1.62-3.5.577-6.9.55-10.5.415-2.2-.064-2.2-.064-4 .52-2.4.558-4.5.636-6.9.64l-2.8.004-2.9-.012-2.8.012c-4.7-.007-9.1-.288-13.8-1.137-1.8.23-3.7.465-5.5.746-4.5.458-9 .269-13.5.192-2.9-.152-2.9-.152-5 1.062-1.9-.34-1.9-.34-4.1-.937l-2.2-.59L541 841l-1 2c-21.4.187-21.4.187-31.3-.703-5.4-.433-10.9-.721-16.4-.985l-3.2-.183c-5-.227-9.6-.189-14.5.848-7.2 1.494-14.4 1.202-21.7 1.086-12.4-.166-12.4-.166-24.7.716-3.1.295-6.1.253-9.2.159-2.2-.001-2.2-.001-4.5.617-2.8.484-4.5.23-7.2-.43-9.3-2.428-9.3-2.428-18.4-1.125l-3-2c-1.9.361-1.9.361-4 1-2 .07-3.9.085-5.9.063l-3.4-.024-7.2-.078-3.4-.024-3.1-.035c-2.8.093-5.2.498-7.9 1.098-4.6.285-9.1.035-13.6-.562-4-.495-7.4-.038-11.4.562-3.3.037-6.6 0-9.9-.062-2.9.057-5.3.457-8.1 1.062-3.7.128-6.5.176-10-1-1.5-.2-3.1-.363-4.6-.5l-2.7-.254q-2.6-.234-5.1-.46c-4.8-.465-9-1.334-13.6-2.786v-2l-2.1-.148c-5.8-.464-11.3-1.229-16.9-2.547-2.1-.512-2.1-.512-4 .695-8.7.616-16.8-.149-25.4-1.858-6.5-1.238-12.8-1.626-19.4-1.85-3.6-.126-6.8-.41-10.2-1.292-3.5-.227-7-.38-10.5-.523-3.8-.513-6.2-1.66-9.5-3.477a108 108 0 0 0-4.9-1.687l-2.4-.762L165 823v-2l-3.4.125c-8.4-.044-15.4-2.69-23-6.004-2.6-1.18-2.6-1.18-5.6-2.121v-2l-6-1v-2h-3l-1-2c-2-.652-2-.652-4-1v-3l-2.4-.437C114 801 114 801 112 800v-2l-3-1c-.7-2.031-.7-2.031-1.1-4.5-.4-2.41-.4-2.41-1-4.5l-2-1v-2h4l-3-4h2l2-5h3v-3l6-1v-2l1.9-.312L123 769l1-3c7.7-7.028 17.8-10.346 27.8-12.262 3.3-.692 3.3-.692 6.9-2.191 4.9-1.89 9.8-2.729 15-3.61q2.8-.478 5.5-.972l2.4-.418c2.4-.495 2.4-.495 4.8-1.545 2.6-1.045 5-1.554 7.8-2.002l3.1-.5 3.2-.5 3.1-.5c8.5-1.38 8.5-1.38 12.6-1.991l3.2-.493 2.8-.43c4.7-1.019 8.6-3.093 12.7-5.586l2.1-1.133c3.4-2.235 4.7-4.073 5.8-8.023 1.2-7.527 1.1-14.58.4-22.127-.4-5.04.1-9.358 1.2-14.26.5-2.508.5-4.665.3-7.207-.1-4.597 1.6-7.5 4.1-11.25a281 281 0 0 0 3.3-5.562l1.6-2.692c1.3-3.144 1.2-5.36 1.2-8.746 1.1-2.703 1.1-2.703 2.4-5.25l1.4-2.578L260 642l1-2h2z" />
</svg>